<svg aria-hidden="true" style="width:0;height:0;position:absolute;overflow:hidden" xmlns="http://www.w3.org/2000/svg"><defs><symbol id="icon-Icono1" viewBox="0 0 32 32"><path fill="#7dd5f4" style="fill:var(--color1,#7dd5f4)" d="M19.531 28.437a.938.938 0 0 0-.937-.937h-.33l.233-.233a.937.937 0 1 0-1.325-1.325l-.234.233v-.362a.937.937 0 1 0-1.874 0v.362l-.256-.256a.937.937 0 1 0-1.325 1.325l.256.256h-.331a.937.937 0 1 0 0 1.874h.33l-.233.235a.937.937 0 1 0 1.325 1.325l.233-.234v.361a.938.938 0 0 0 1.876 0V30.7l.256.256a.933.933 0 0 0 1.326 0 .938.938 0 0 0 0-1.326l-.256-.256h.331a.938.938 0 0 0 .937-.938zM7.063 22.501a.939.939 0 0 0-.938-.938h-.33l.233-.234a.937.937 0 1 0-1.325-1.325l-.233.234v-.362a.938.938 0 0 0-1.876 0v.362l-.256-.256a.937.937 0 1 0-1.325 1.325l.256.256H.938a.937.937 0 1 0 0 1.874h.331l-.234.234a.937.937 0 1 0 1.325 1.325l.234-.233v.361a.937.937 0 1 0 1.874 0v-.361l.256.256a.933.933 0 0 0 1.326 0 .938.938 0 0 0 0-1.326l-.256-.256h.332a.939.939 0 0 0 .938-.938z"/><path fill="#4793ff" style="fill:var(--color2,#4793ff)" d="M32 22.501a.938.938 0 0 0-.937-.938h-.331l.234-.234a.937.937 0 1 0-1.325-1.325l-.234.234v-.362a.937.937 0 1 0-1.874 0v.362l-.256-.256a.937.937 0 1 0-1.325 1.325l.256.256h-.332a.937.937 0 1 0 0 1.874h.33l-.233.234a.937.937 0 1 0 1.325 1.325l.233-.233v.361a.938.938 0 0 0 1.876 0v-.361l.256.256a.934.934 0 0 0 1.326 0 .938.938 0 0 0 0-1.326l-.256-.256h.331a.938.938 0 0 0 .937-.938z"/><path fill="#fff4f4" style="fill:var(--color3,#fff4f4)" d="M10.781 23.375c.517 0 .938-.421.938-.937s-.421-.937-.938-.937-.937.421-.937.937.421.937.937.937zm10.438 0c.517 0 .938-.421.938-.937s-.422-.937-.938-.937-.937.421-.937.937.421.937.937.937zM5.687 32a.938.938 0 0 0 .001-1.875.94.94 0 0 0-.938.938.94.94 0 0 0 .938.937zm20.626 0c.516 0 .937-.421.937-.937s-.421-.938-.938-.938a.94.94 0 0 0-.937.938c0 .516.421.937.937.937zM16 19.938a5.492 5.492 0 0 1-3.463-1.227l.01.008a5.568 5.568 0 0 1-1.35-1.6l-.014-.028a4.54 4.54 0 0 1-2.552.784 4.582 4.582 0 0 1-4.393-3.324l-.008-.032A4.566 4.566 0 0 1 0 9.969a4.568 4.568 0 0 1 4.227-4.55l.015-.001a4.569 4.569 0 0 1 1.285-2.092l.003-.003a4.529 4.529 0 0 1 3.094-1.215h.005c.91 0 1.792.276 2.535.772a5.558 5.558 0 0 1 1.357-1.64l.01-.008A5.484 5.484 0 0 1 15.999 0a5.506 5.506 0 0 1 4.835 2.88 4.534 4.534 0 0 1 2.534-.772c1.154 0 2.255.432 3.099 1.215a4.551 4.551 0 0 1 1.281 2.063l.008.032a4.563 4.563 0 0 1 .027 9.1l-.015.001c-.553 1.947-2.312 3.35-4.4 3.355h-.001a4.554 4.554 0 0 1-2.569-.793l.016.01a5.547 5.547 0 0 1-1.354 1.619l-.01.008a5.48 5.48 0 0 1-3.452 1.219z"/><path fill="#f6efea" style="fill:var(--color4,#f6efea)" d="M30.458 6.549a4.54 4.54 0 0 0-2.685-1.13l-.015-.001a4.57 4.57 0 0 0-1.286-2.093l-.003-.003a4.529 4.529 0 0 0-3.094-1.215h-.005a4.57 4.57 0 0 0-2.534.772 5.573 5.573 0 0 0-1.357-1.64l-.01-.008a5.484 5.484 0 0 0-3.468-1.232v19.938a5.492 5.492 0 0 0 3.463-1.227l-.01.008a5.568 5.568 0 0 0 1.35-1.6l.014-.028a4.577 4.577 0 0 0 2.553.784 4.58 4.58 0 0 0 4.4-3.356A4.567 4.567 0 0 0 32 9.967a4.553 4.553 0 0 0-1.536-3.415l-.005-.004z"/><path fill="#4793ff" style="fill:var(--color2,#4793ff)" d="M19.531 28.437a.938.938 0 0 0-.937-.937h-.33l.233-.233a.937.937 0 0 0-1.326-1.325l.001-.001-.234.233v-.362a.938.938 0 0 0-.937-.937V32a.938.938 0 0 0 .937-.937v-.362l.256.256a.933.933 0 0 0 1.326 0 .938.938 0 0 0 0-1.326l-.256-.256h.331a.938.938 0 0 0 .937-.938z"/></symbol><symbol id="icon-Icono2" viewBox="0 0 41 32"><path fill="#eee1dc" style="fill:var(--color5,#eee1dc)" d="M34.856 22.43c-4.302 0-14.279-3.141-18.705-7.058-1.632-1.445-2.459-2.932-2.459-4.421a6.002 6.002 0 0 1 7.7-5.751l-.042-.011c.835-2.369 3.054-4.037 5.663-4.037h.008a6.022 6.022 0 0 1 5.203 3.014 6.002 6.002 0 0 1 6.389 7.162l.006-.038c1.724 1.077 2.856 2.962 2.863 5.112v.001a5.665 5.665 0 0 1-1.785 4.14c-1.05.998-2.492 1.653-4.063 1.847-.22.026-.475.042-.734.042h-.047.002z"/><path fill="#e0d2cd" style="fill:var(--color6,#e0d2cd)" d="M38.617 11.289a6.002 6.002 0 0 0-6.418-7.121l.023-.002c-.963-1.649-2.647-2.788-4.609-2.985l-.025-.002v19.864c2.856.872 5.527 1.387 7.268 1.387.286 0 .546-.014.779-.041 1.57-.193 3.013-.849 4.063-1.847a5.652 5.652 0 0 0 1.785-4.128V16.4v.001a6.028 6.028 0 0 0-2.839-5.097l-.025-.015z"/><path fill="#fff4f4" style="fill:var(--color3,#fff4f4)" d="M17.268 30.848a6.069 6.069 0 0 1-3.828-1.355l.011.009a6.136 6.136 0 0 1-1.376-1.572l-.015-.027a5.037 5.037 0 0 1-2.646.747 5.101 5.101 0 0 1-4.846-3.555l-.01-.036A5.084 5.084 0 0 1 0 20.009a5.088 5.088 0 0 1 4.55-5.051l.022-.002a5.057 5.057 0 0 1 1.391-2.189 5.04 5.04 0 0 1 3.442-1.351h.007c.935 0 1.843.261 2.626.735a6.164 6.164 0 0 1 1.385-1.613l.011-.009a6.058 6.058 0 0 1 3.833-1.361c1.393 0 2.753.484 3.832 1.361a6.142 6.142 0 0 1 1.396 1.62 5.006 5.006 0 0 1 2.63-.737c1.333 0 2.545.515 3.449 1.357l-.003-.003a5.064 5.064 0 0 1 1.39 2.189 5.084 5.084 0 0 1 4.566 5.053 5.08 5.08 0 0 1-4.529 5.049l-.022.002c-.662 2.093-2.584 3.584-4.855 3.591h-.001a5.06 5.06 0 0 1-2.668-.759l.022.013a6.078 6.078 0 0 1-5.207 2.945z"/><path fill="#f6efea" style="fill:var(--color4,#f6efea)" d="M32.818 16.201a5.06 5.06 0 0 0-2.833-1.245l-.022-.002a5.083 5.083 0 0 0-1.387-2.186l-.003-.003a5.04 5.04 0 0 0-3.442-1.351h-.009c-.933 0-1.842.261-2.625.735a6.164 6.164 0 0 0-1.385-1.613l-.011-.009a6.058 6.058 0 0 0-3.833-1.361v21.681a6.074 6.074 0 0 0 3.828-1.355l-.011.009a6.088 6.088 0 0 0 1.391-1.599 5.088 5.088 0 0 0 2.647.747 5.101 5.101 0 0 0 4.846-3.555l.01-.036a5.085 5.085 0 0 0 4.556-5.053c0-1.512-.661-2.87-1.71-3.801l-.005-.005z"/></symbol><symbol id="icon-Icono3" viewBox="0 0 32 32"><path fill="#fdbf00" style="fill:var(--color7,#fdbf00)" d="M16 25.375c-5.169 0-9.375-4.206-9.375-9.375S10.831 6.625 16 6.625c.517 0 .937.421.937.937v16.875c0 .518-.42.938-.937.938z"/><path fill="#7dd5f4" style="fill:var(--color1,#7dd5f4)" d="M31.063 15.062h-1.458l.714-1.237a.937.937 0 0 0-1.621-.942l-.002.004-1.255 2.174h-9.177l6.49-6.489 2.426.649a.938.938 0 0 0 .491-1.809l-.007-.002-1.38-.369.942-.942a.937.937 0 1 0-1.325-1.325l-.942.942-.369-1.381a.94.94 0 0 0-1.81.492l-.001-.006.649 2.426-6.489 6.489V4.559l2.175-1.255a.938.938 0 1 0-.942-1.622l.004-.002-1.237.714V.937a.937.937 0 1 0-1.874 0v30.126a.937.937 0 1 0 1.874 0v-1.458l1.238.714a.937.937 0 0 0 .942-1.621l-.004-.002-2.175-1.255v-9.177l6.49 6.49-.65 2.426a.937.937 0 1 0 1.809.491l.001-.006.37-1.38.942.942a.933.933 0 0 0 1.326 0 .936.936 0 0 0 0-1.326l-.942-.942 1.381-.369a.94.94 0 0 0-.492-1.81l.006-.001-2.426.649-6.49-6.489h9.178l1.255 2.175a.938.938 0 1 0 1.622-.942l.002.004-.714-1.237h1.457a.937.937 0 1 0 0-1.874z"/><path fill="#fdbf00" style="fill:var(--color7,#fdbf00)" d="M3.941 16.937H.938a.937.937 0 1 1 0-1.874h3.003a.937.937 0 1 1 0 1.874zm3.531-8.526a.936.936 0 0 1-.663-.274L4.686 6.012a.937.937 0 1 1 1.325-1.325L8.135 6.81a.937.937 0 0 1-.662 1.6h-.001zM5.349 27.589a.937.937 0 0 1-.662-1.6l2.126-2.126a.937.937 0 1 1 1.325 1.325l-2.124 2.124a.934.934 0 0 1-.663.274zm6.132-21.832a.937.937 0 0 1-.869-.586L9.485 2.386a.937.937 0 0 1 1.736-.708l.002.006 1.126 2.784a.937.937 0 0 1-.868 1.289zM2.036 22.583a.938.938 0 0 1-.358-1.804l.006-.002 2.784-1.126a.938.938 0 0 1 .71 1.737l-.006.002-2.784 1.125a.923.923 0 0 1-.351.07zm8.252 8.292a.938.938 0 0 1-.865-1.299l-.002.006 1.139-2.779a.939.939 0 0 1 1.732.717l.002-.006-1.138 2.779a.939.939 0 0 1-.868.582h-.001zm-5.447-18.51a.943.943 0 0 1-.355-.07l-2.779-1.138a.938.938 0 1 1 .718-1.734l-.006-.002 2.779 1.138a.937.937 0 0 1-.352 1.806h-.005z"/><path fill="#4793ff" style="fill:var(--color2,#4793ff)" d="M31.063 15.062h-1.458l.714-1.237a.937.937 0 0 0-1.621-.942l-.002.004-1.255 2.174h-9.177l6.49-6.489 2.426.649a.938.938 0 0 0 .491-1.809l-.007-.002-1.38-.369.942-.942a.937.937 0 1 0-1.325-1.325l-.942.942-.369-1.381a.94.94 0 0 0-1.81.492l-.001-.006.649 2.426-6.489 6.489V4.559l2.175-1.255a.938.938 0 1 0-.942-1.622l.004-.002-1.237.714V.937A.938.938 0 0 0 16.002 0v32a.938.938 0 0 0 .937-.938v-1.456l1.238.714a.937.937 0 0 0 .942-1.621l-.004-.002-2.175-1.255v-9.178l6.49 6.49-.65 2.426a.937.937 0 1 0 1.809.491l.001-.006.37-1.38.942.942a.933.933 0 0 0 1.326 0 .936.936 0 0 0 0-1.326l-.942-.942 1.381-.369a.94.94 0 0 0-.492-1.81l.006-.001-2.426.649-6.49-6.489h9.178l1.255 2.175a.938.938 0 1 0 1.622-.942l.002.004-.714-1.237h1.457a.937.937 0 1 0 0-1.874z"/></symbol><symbol id="icon-Icono4" viewBox="0 0 31 32"><path fill="#fdbf00" style="fill:var(--color7,#fdbf00)" d="M15.556 24.204c-4.658 0-8.446-3.796-8.446-8.462s3.789-8.462 8.446-8.462c4.658 0 8.446 3.796 8.446 8.462s-3.789 8.462-8.446 8.462zm0-19.075a.912.912 0 0 1-.911-.914V1.072l-.001-.04a.912.912 0 1 1 1.824 0l-.001.042v-.002 3.143a.912.912 0 0 1-.911.914z"/><path fill="#ff8856" style="fill:var(--color8,#ff8856)" d="M30.2 16.655h-3.138a.913.913 0 0 1 0-1.826H30.2a.913.913 0 0 1 0 1.826z"/><path fill="#fdbf00" style="fill:var(--color7,#fdbf00)" d="M15.556 31.326a.912.912 0 0 1-.911-.914v-3.143l-.001-.04a.912.912 0 1 1 1.824 0l-.001.042v-.002 3.143a.912.912 0 0 1-.911.914zM4.05 16.655H.912a.913.913 0 0 1 0-1.826H4.05a.913.913 0 0 1 0 1.826z"/><path fill="#ff8856" style="fill:var(--color8,#ff8856)" d="M23.692 8.505a.913.913 0 0 1-.644-1.559l2.219-2.222a.91.91 0 0 1 1.289 0 .914.914 0 0 1 0 1.291l-2.219 2.222a.905.905 0 0 1-.644.268zm2.219 18.523a.908.908 0 0 1-.645-.267l-2.219-2.223c-.356-.356-.356-.935 0-1.292s.933-.356 1.289 0l2.219 2.222a.915.915 0 0 1-.645 1.56z"/><path fill="#fdbf00" style="fill:var(--color7,#fdbf00)" d="M5.2 27.029a.915.915 0 0 1-.644-1.56l2.22-2.222a.91.91 0 0 1 1.289 0 .914.914 0 0 1 0 1.291L5.846 26.76a.906.906 0 0 1-.644.268zM7.42 8.505a.901.901 0 0 1-.644-.268L4.557 6.015a.911.911 0 1 1 1.289-1.292l2.219 2.223a.915.915 0 0 1-.644 1.559z"/><path fill="#ff8856" style="fill:var(--color8,#ff8856)" d="M19.971 6.012a.914.914 0 0 1-.839-1.27l-.002.006 1.204-2.903a.912.912 0 1 1 1.682.708l.002-.006-1.204 2.903a.915.915 0 0 1-.842.563zm9.107 16.273a.895.895 0 0 1-.349-.07l-2.898-1.206a.915.915 0 0 1 .706-1.685l-.006-.002 2.898 1.206a.914.914 0 0 1-.35 1.757z"/><path fill="#fdbf00" style="fill:var(--color7,#fdbf00)" d="M9.935 30.203a.914.914 0 0 1-.84-1.27l-.002.006 1.204-2.902a.912.912 0 1 1 1.682.707l.002-.006-1.204 2.903a.915.915 0 0 1-.842.563zM4.93 12.232a.899.899 0 0 1-.349-.07l-2.898-1.206a.915.915 0 0 1 .706-1.685l-.006-.002 2.898 1.206a.914.914 0 0 1-.35 1.757z"/><path fill="#ff8856" style="fill:var(--color8,#ff8856)" d="M26.191 12.257a.914.914 0 0 1-.354-1.755l.006-.002 2.901-1.2a.914.914 0 0 1 .702 1.686l-.006.002-2.901 1.2a.906.906 0 0 1-.347.069zm-5.047 17.959a.912.912 0 0 1-.843-.565l-1.197-2.905a.912.912 0 0 1 1.683-.703l.002.006 1.197 2.906a.914.914 0 0 1-.842 1.262z"/><path fill="#fdbf00" style="fill:var(--color7,#fdbf00)" d="M2.02 22.253a.914.914 0 0 1-.354-1.755l.006-.002 2.901-1.2a.914.914 0 0 1 .702 1.686l-.006.002-2.901 1.2a.906.906 0 0 1-.347.069zm9.144-16.252a.912.912 0 0 1-.842-.564L9.124 2.53a.912.912 0 0 1 1.683-.703l.002.006 1.197 2.907a.914.914 0 0 1-.842 1.262z"/><path fill="#ff8856" style="fill:var(--color8,#ff8856)" d="M15.556.158v4.971a.912.912 0 0 0 .911-.914V1.072a.912.912 0 0 0-.911-.914zm0 7.122v16.924c4.658 0 8.446-3.796 8.446-8.462S20.213 7.28 15.556 7.28zm0 19.076v4.971a.912.912 0 0 0 .911-.914V27.27a.912.912 0 0 0-.911-.914z"/></symbol><symbol id="icon-Icono5" viewBox="0 0 34 32"><path fill="#fdbf00" style="fill:var(--color7,#fdbf00)" d="M20.383 21.734c-4.081 0-7.418-3.307-7.457-7.402-.038-4.119 3.278-7.502 7.389-7.539h.07c4.081 0 7.418 3.306 7.456 7.402.038 4.119-3.278 7.502-7.389 7.539h-.069z"/><path fill="#ff8856" style="fill:var(--color8,#ff8856)" d="M20.385 6.792h-.002v14.943l.069-.001c4.111-.038 7.427-3.42 7.389-7.539-.038-4.096-3.375-7.403-7.457-7.403z"/><path fill="#fdbf00" style="fill:var(--color7,#fdbf00)" d="M20.412 5.372a.995.995 0 0 1-.994-.987l-.024-2.696v-.011c0-.546.44-.989.985-.995h.01c.544 0 .989.44.994.987l.024 2.696v.011c0 .546-.44.989-.985.995h-.01z"/><path fill="#ff8856" style="fill:var(--color8,#ff8856)" d="M30.254 15.169h-.005a.996.996 0 0 1-.005-1.992l2.702-.024h.005a.996.996 0 0 1 .005 1.992l-2.703.025zm-2.836-6.965a.997.997 0 0 1-.709-1.694l1.886-1.924a.99.99 0 0 1 1.406-.012.996.996 0 0 1 .013 1.408l-1.886 1.925a.991.991 0 0 1-.709.298z"/><path fill="#fdbf00" style="fill:var(--color7,#fdbf00)" d="M13.46 8.333a.988.988 0 0 1-.696-.286l-1.92-1.889a.995.995 0 0 1-.013-1.409.99.99 0 0 1 1.406-.012l1.92 1.889a.998.998 0 0 1-.696 1.707z"/><path fill="#ff8856" style="fill:var(--color8,#ff8856)" d="M24.207 6.095a.997.997 0 0 1-.919-1.377l-.002.007 1.01-2.499a.994.994 0 1 1 1.84.753l.002-.007-1.009 2.5a.995.995 0 0 1-.922.623zm7.939 13.888a.978.978 0 0 1-.372-.073l-2.495-1.012a.997.997 0 0 1 .754-1.844l-.007-.002 2.494 1.011a.997.997 0 0 1-.373 1.92z"/><path fill="#fdbf00" style="fill:var(--color7,#fdbf00)" d="M11.355 11.549a.975.975 0 0 1-.373-.073l-2.495-1.013a.997.997 0 0 1 .754-1.844l-.007-.002 2.494 1.011a.997.997 0 0 1-.373 1.92z"/><path fill="#ff8856" style="fill:var(--color8,#ff8856)" d="M29.592 11.404a.997.997 0 0 1-.394-1.911l.006-.002 2.477-1.054a.997.997 0 0 1 .782 1.832l-.006.003-2.479 1.052a1 1 0 0 1-.388.079z"/><path fill="#fdbf00" style="fill:var(--color7,#fdbf00)" d="M16.654 6.156a.992.992 0 0 1-.915-.608l-1.05-2.482a.994.994 0 0 1 1.828-.782l.002.006 1.05 2.482a.997.997 0 0 1-.915 1.385z"/><path fill="#fff4f4" style="fill:var(--color3,#fff4f4)" d="M14.782 31.724a5.178 5.178 0 0 1-4.443-2.529l-.013-.024c-.65.414-1.441.66-2.29.661a4.332 4.332 0 0 1-4.125-3.055l-.008-.031A4.319 4.319 0 0 1 0 22.451v-.005a4.323 4.323 0 0 1 3.898-4.301l.018-.001a4.327 4.327 0 0 1 1.188-1.89l.003-.003a4.277 4.277 0 0 1 2.927-1.152c.843 0 1.63.243 2.293.663l-.018-.01c.911-1.553 2.572-2.581 4.473-2.583a5.176 5.176 0 0 1 4.46 2.559l.013.024a4.255 4.255 0 0 1 2.276-.652c1.132 0 2.162.438 2.929 1.154l-.003-.002c.562.522.97 1.174 1.192 1.894a4.32 4.32 0 0 1 3.915 4.297v.01a4.316 4.316 0 0 1-3.885 4.294l-.018.001c-.551 1.795-2.191 3.079-4.132 3.086h-.001a4.29 4.29 0 0 1-2.308-.672l.017.01a5.182 5.182 0 0 1-4.455 2.553z"/><path fill="#f6efea" style="fill:var(--color4,#f6efea)" d="M28.106 19.207a4.285 4.285 0 0 0-2.439-1.061l-.018-.001c-.559-1.777-2.192-3.044-4.121-3.045-.81 0-1.597.233-2.273.652-.911-1.553-2.572-2.581-4.473-2.583v18.556a5.178 5.178 0 0 0 4.443-2.529l.013-.024a4.315 4.315 0 0 0 2.29.661 4.332 4.332 0 0 0 4.125-3.055l.008-.031a4.319 4.319 0 0 0 3.903-4.295v-.005a4.316 4.316 0 0 0-1.454-3.235l-.004-.004z"/><path fill="#ff8856" style="fill:var(--color8,#ff8856)" d="M21.382 1.671a.995.995 0 0 0-.993-.987h-.005v4.688l.029.001h.01a.995.995 0 0 0 .985-.995v-.011.001l-.025-2.696z"/></symbol><symbol id="icon-Presion" viewBox="0 0 32 32"><path fill="#fff" style="fill:var(--color9,#fff)" opacity=".54" d="M18.49 4.12A2.816 2.816 0 0 0 16.001 0a2.816 2.816 0 0 0-2.48 4.135l-.007-.015C6.949 5.299 1.952 11.051 1.952 17.95c0 7.746 6.302 14.05 14.05 14.05s14.05-6.304 14.05-14.05c0-6.899-4.997-12.651-11.56-13.83zM16 1.875l.038-.001a.938.938 0 1 1 0 1.878l-.041-.001h.002a.94.94 0 0 1-.001-1.876H16zm0 28.25c-6.714 0-12.176-5.461-12.176-12.176 0-6.71 5.464-12.173 12.176-12.173s12.176 5.462 12.176 12.176S22.714 30.128 16 30.128z"/><path fill="#fff" style="fill:var(--color9,#fff)" opacity=".54" d="m23.333 10.69-.042-.045-.046-.042a10.261 10.261 0 0 0-7.24-2.978H16a10.29 10.29 0 0 0-7.267 2.998l-.024.021-.019.021a10.263 10.263 0 0 0-3.014 7.278v.007c0 .517.419.938.938.938h1.062a.938.938 0 0 0 0-1.876h-.072a8.394 8.394 0 0 1 1.817-4.358l-.012.016.051.053a.933.933 0 0 0 1.326 0 .934.934 0 0 0 0-1.326l-.051-.051a8.347 8.347 0 0 1 4.289-1.788l.039-.004v.072a.938.938 0 0 0 1.876 0v-.074a8.401 8.401 0 0 1 4.343 1.808l-.016-.013-.048.05a.938.938 0 0 0 1.325 1.327l.051-.051a8.355 8.355 0 0 1 1.801 4.289l.004.039h-.085a.938.938 0 0 0 0 1.876h1.077a.938.938 0 0 0 .936-.938v-.002a10.26 10.26 0 0 0-2.992-7.247v.001z"/><path fill="#fff" style="fill:var(--color9,#fff)" opacity=".54" d="M20.251 13.699a.934.934 0 0 0-1.326 0l-3.914 3.914a2.794 2.794 0 0 0-1.408-.267.938.938 0 1 0 .135 1.87h-.004l.066-.002a.936.936 0 0 1 .934.994v-.003l-.001.048a.938.938 0 0 0 1.874.064v-.003a2.799 2.799 0 0 0-.277-1.391l.007.017 3.915-3.915a.937.937 0 0 0 0-1.324zm1.125 10.989H10.624a.938.938 0 0 0 0 1.876h10.752a.938.938 0 0 0 0-1.876z"/></symbol><symbol id="icon-Humedad" viewBox="0 0 32 32"><path fill="#fff" style="fill:var(--color9,#fff)" opacity=".54" d="M28.621 9.398a26.926 26.926 0 0 0-1.846-2.786l.049.068c-.827-1.078-1.317-1.461-1.869-1.461-.522 0-.947.366-1.424.915-.352.405-.771.966-1.213 1.624a31.45 31.45 0 0 0-1.76 2.965 55.566 55.566 0 0 0-1.621-2.938l.161.295c-1.203-2.058-2.486-4-3.613-5.469C13.637.201 12.941 0 12.435 0s-1.2.202-3.048 2.611C8.261 4.08 6.977 6.022 5.774 8.08 4.329 10.554.966 16.72.966 20.531.966 26.856 6.112 32 12.435 32c5.934 0 10.829-4.528 11.411-10.312a6.082 6.082 0 0 0 7.184-5.972c0-1.906-1.512-4.776-2.411-6.317zM12.437 30.125c-5.296-.006-9.587-4.298-9.594-9.593v-.001c0-2.234 1.6-6.358 4.28-11.034 2.39-4.173 4.523-6.858 5.314-7.52.792.662 2.923 3.346 5.315 7.52 2.68 4.675 4.28 8.8 4.28 11.034-.006 5.296-4.299 9.588-9.595 9.594h-.001zm12.52-10.21c-.371 0-.736-.048-1.091-.144-.206-2.064-1.184-4.634-2.256-6.925 1.043-2.328 2.59-4.621 3.346-5.498.477.55 1.322 1.709 2.262 3.371 1.214 2.147 1.939 4.014 1.939 4.995a4.205 4.205 0 0 1-4.2 4.2z"/></symbol><symbol id="icon-Velocidad" viewBox="0 0 36 32"><path fill="#fff" style="fill:var(--color9,#fff)" opacity=".54" d="M28.128 1.159a7.452 7.452 0 0 0-4.649 1.636 1.043 1.043 0 1 0 1.306 1.623l-.002.002a5.327 5.327 0 0 1 3.344-1.177 5.35 5.35 0 0 1 5.344 5.344 5.35 5.35 0 0 1-5.344 5.344H8.541a1.043 1.043 0 0 0-.002 2.082H28.127a7.435 7.435 0 0 0 7.428-7.425 7.435 7.435 0 0 0-7.427-7.428z"/><path fill="#fff" style="fill:var(--color9,#fff)" opacity=".54" d="M6.546 11.854h11.129a1.042 1.042 0 1 0 0-2.084H6.546a1.042 1.042 0 1 0 0 2.084zm10.835 6.249H1.041a1.042 1.042 0 1 0 0 2.084h16.34a4.29 4.29 0 0 1 4.284 4.284 4.29 4.29 0 0 1-6.976 3.335l.008.006a1.042 1.042 0 0 0-1.305 1.624l.002.001a6.383 6.383 0 0 0 3.986 1.403 6.375 6.375 0 0 0 6.37-6.368 6.375 6.375 0 0 0-6.37-6.37zM1.042 11.854h1.404a1.042 1.042 0 1 0 0-2.084H1.042a1.042 1.042 0 1 0 0 2.084z"/><path fill="#fff" style="fill:var(--color9,#fff)" opacity=".54" d="M13.611 23.292c0-.575-.466-1.042-1.042-1.042H6.32a1.043 1.043 0 0 0-.002 2.082H12.569c.575 0 1.041-.465 1.042-1.04z"/></symbol><symbol id="icon-Vector-3" viewBox="0 0 1 32"><path fill="none" opacity=".2" stroke="#fff" style="stroke:var(--color1,#fff)" stroke-width=".681" d="M.681.177v31.376"/></symbol><symbol id="icon-Icon-Amanecer" viewBox="0 0 32 32"><path d="M16 5.103c.518 0 .938-.42.938-.938V.937a.938.938 0 0 0-1.876 0v3.228c0 .518.42.938.938.938zM31.063 15.063h-3.228a.938.938 0 0 0 0 1.876h3.228a.938.938 0 0 0 0-1.876zM5.103 16a.938.938 0 0 0-.938-.938H.937a.938.938 0 0 0 0 1.876h3.228c.518 0 .938-.42.938-.938zM24.368 8.569c.24 0 .48-.092.663-.275l2.282-2.282a.938.938 0 0 0-1.326-1.326l-2.282 2.282a.938.938 0 0 0 .663 1.601zM25.031 23.705a.938.938 0 0 0-1.326 1.326l2.282 2.282a.935.935 0 0 0 1.326 0 .938.938 0 0 0 0-1.326l-2.282-2.282zM6.969 23.705l-2.282 2.282a.938.938 0 0 0 1.326 1.326l2.282-2.282a.938.938 0 0 0-1.326-1.326zM6.969 8.294a.935.935 0 0 0 1.326 0 .938.938 0 0 0 0-1.326L6.013 4.686a.938.938 0 0 0-1.326 1.326l2.282 2.282zM20.182 5.937a.938.938 0 0 0 1.225-.506l1.239-2.981a.938.938 0 0 0-1.731-.72l-1.239 2.981a.937.937 0 0 0 .506 1.225zM30.269 20.915l-2.981-1.239a.938.938 0 0 0-.72 1.732l2.98 1.239a.936.936 0 0 0 1.226-.506.938.938 0 0 0-.506-1.226zM11.818 26.063a.938.938 0 0 0-1.226.506l-1.239 2.98a.938.938 0 0 0 1.731.72l1.239-2.981a.937.937 0 0 0-.506-1.225zM1.731 11.085l2.981 1.239a.938.938 0 0 0 .719-1.732L2.45 9.353a.938.938 0 0 0-.72 1.732zM26.073 11.841a.937.937 0 0 0 1.224.509l2.983-1.232a.938.938 0 0 0-.715-1.733l-2.983 1.232a.938.938 0 0 0-.509 1.224zM21.383 26.582a.938.938 0 0 0-1.733.715l1.232 2.983a.937.937 0 1 0 1.733-.715l-1.232-2.983zM5.927 20.159a.938.938 0 0 0-1.224-.509L1.72 20.882a.938.938 0 0 0 .715 1.733l2.983-1.232a.938.938 0 0 0 .509-1.224zM10.617 5.419a.937.937 0 1 0 1.733-.715l-1.232-2.983a.938.938 0 0 0-1.733.715l1.232 2.983z"/><path d="M16.938 24.637c4.351-.469 7.75-4.163 7.75-8.637 0-4.79-3.897-8.688-8.688-8.688S7.312 11.209 7.312 16c0 4.474 3.399 8.168 7.75 8.637v6.426a.938.938 0 0 0 1.876 0v-6.426zM9.187 16c0-3.756 3.056-6.813 6.813-6.813s6.813 3.056 6.813 6.813c0 3.438-2.561 6.289-5.875 6.748V19.17l.212.212a.938.938 0 0 0 1.326-1.326l-1.817-1.817a.937.937 0 0 0-1.316-.009l-1.875 1.822a.938.938 0 0 0 1.307 1.345l.289-.281v3.633c-3.314-.458-5.875-3.309-5.875-6.748z"/></symbol><symbol id="icon-icon-location" viewBox="0 0 32 32"><path fill="none" stroke="#aeb3b9" style="stroke:var(--color1,#aeb3b9)" stroke-width="2.909" d="M27.636 16c0 6.427-5.21 11.636-11.636 11.636S4.364 22.426 4.364 16C4.364 9.573 9.574 4.364 16 4.364S27.636 9.574 27.636 16z"/><path fill="#aeb3b9" style="fill:var(--color1,#aeb3b9)" d="M14.545 0h2.909v5.818h-2.909V0zM14.545 26.182h2.909V32h-2.909v-5.818zM5.818 14.545v2.909H0v-2.909h5.818zM32 14.545v2.909h-5.818v-2.909H32z"/></symbol><symbol id="icon-Icon-puesta" viewBox="0 0 32 32"><path d="M16 5.103c.518 0 .938-.42.938-.938V.937a.938.938 0 0 0-1.876 0v3.228c0 .518.42.938.938.938zM31.063 15.063h-3.228a.938.938 0 0 0 0 1.876h3.228a.938.938 0 0 0 0-1.876zM5.103 16a.938.938 0 0 0-.938-.938H.937a.938.938 0 0 0 0 1.876h3.228c.518 0 .938-.42.938-.938zM24.368 8.569c.24 0 .48-.092.663-.275l2.282-2.282a.938.938 0 0 0-1.326-1.326l-2.282 2.282a.938.938 0 0 0 .663 1.601zM25.031 23.705a.938.938 0 0 0-1.326 1.326l2.282 2.282a.935.935 0 0 0 1.326 0 .938.938 0 0 0 0-1.326l-2.282-2.282zM6.969 23.705l-2.282 2.282a.938.938 0 0 0 1.326 1.326l2.282-2.282a.938.938 0 0 0-1.326-1.326zM6.969 8.294a.935.935 0 0 0 1.326 0 .938.938 0 0 0 0-1.326L6.013 4.686a.938.938 0 0 0-1.326 1.326l2.282 2.282zM20.182 5.937a.938.938 0 0 0 1.225-.506l1.239-2.981a.938.938 0 0 0-1.731-.72l-1.239 2.981a.937.937 0 0 0 .506 1.225zM30.269 20.915l-2.98-1.239a.938.938 0 0 0-.72 1.732l2.98 1.239a.935.935 0 0 0 1.225-.506.938.938 0 0 0-.506-1.226zM11.818 26.063a.938.938 0 0 0-1.226.506l-1.239 2.98a.938.938 0 0 0 1.732.72l1.239-2.98a.938.938 0 0 0-.506-1.226zM1.731 11.085l2.981 1.239a.938.938 0 0 0 .719-1.732L2.45 9.353a.938.938 0 0 0-.72 1.732zM26.073 11.841a.937.937 0 0 0 1.224.509l2.983-1.232a.938.938 0 0 0-.715-1.733l-2.983 1.232a.938.938 0 0 0-.509 1.224zM21.383 26.582a.938.938 0 0 0-1.733.715l1.232 2.983a.939.939 0 0 0 1.224.509.938.938 0 0 0 .509-1.224l-1.232-2.983zM5.927 20.158a.938.938 0 0 0-1.224-.509L1.72 20.881a.938.938 0 0 0 .715 1.733l2.983-1.232a.938.938 0 0 0 .509-1.224zM10.617 5.419a.937.937 0 1 0 1.733-.715l-1.232-2.983a.938.938 0 0 0-1.733.715l1.232 2.983z"/><path d="m17.15 28.582-.212.212v-4.158c4.351-.469 7.75-4.163 7.75-8.637 0-4.79-3.897-8.688-8.688-8.688s-8.688 3.897-8.688 8.688c0 4.474 3.399 8.168 7.75 8.637v4.213l-.289-.281a.938.938 0 0 0-1.307 1.345l1.875 1.822a.934.934 0 0 0 1.316-.01l1.817-1.817a.938.938 0 0 0-1.326-1.326zM9.187 16c0-3.756 3.056-6.813 6.813-6.813s6.813 3.056 6.813 6.813c0 3.438-2.561 6.289-5.875 6.748v-2.225a.938.938 0 0 0-1.876 0v2.225C11.748 22.29 9.187 19.439 9.187 16z"/></symbol><symbol id="icon-Star-1" viewBox="0 0 32 32"><path fill="none" stroke="#7e8691" style="stroke:var(--color6,#7e8691)" stroke-width="1.454" d="m16 3.808 3.064 9.429h9.915l-8.021 5.828.163.503 2.901 8.927-8.021-5.828-8.021 5.828 3.064-9.43-8.021-5.828h9.915l3.064-9.429z"/></symbol><symbol id="icon-Nubes" viewBox="0 0 32 32"><path fill="#eee1dc" style="fill:var(--color2,#eee1dc)" d="M26.888 20.96c-3.317 0-11.015-2.423-14.428-5.445-1.259-1.114-1.897-2.262-1.897-3.411a4.63 4.63 0 0 1 5.908-4.444 4.62 4.62 0 0 1 4.374-3.114c1.671 0 3.199.909 4.013 2.325a4.63 4.63 0 0 1 4.933 5.494 4.653 4.653 0 0 1 2.21 3.944 4.37 4.37 0 0 1-1.377 3.194c-.81.77-1.923 1.276-3.134 1.424-.179.022-.38.033-.601.033z"/><path fill="#e0d2cd" style="fill:var(--color3,#e0d2cd)" d="M29.79 12.366a4.63 4.63 0 0 0-4.933-5.494 4.647 4.647 0 0 0-3.576-2.304v15.323c2.204.673 4.264 1.07 5.607 1.07.22 0 .421-.011.601-.033 1.211-.148 2.324-.654 3.134-1.424A4.373 4.373 0 0 0 32 16.31a4.654 4.654 0 0 0-2.21-3.944z"/><path fill="#fff4f4" style="fill:var(--color4,#fff4f4)" d="M13.321 27.454a4.7 4.7 0 0 1-4.017-2.272 3.927 3.927 0 0 1-2.042.576 3.933 3.933 0 0 1-3.746-2.77 3.919 3.919 0 0 1 .011-7.795A3.907 3.907 0 0 1 4.6 13.505a3.903 3.903 0 0 1 2.662-1.043c.72 0 1.421.202 2.026.567a4.697 4.697 0 0 1 4.033-2.3 4.697 4.697 0 0 1 4.033 2.3 3.91 3.91 0 0 1 4.688.476 3.91 3.91 0 0 1 1.073 1.689 3.918 3.918 0 0 1 .011 7.795 3.932 3.932 0 0 1-3.746 2.77 3.93 3.93 0 0 1-2.042-.576 4.7 4.7 0 0 1-4.017 2.272z"/><path fill="#f6efea" style="fill:var(--color5,#f6efea)" d="M25.317 16.155a3.922 3.922 0 0 0-2.203-.961 3.91 3.91 0 0 0-1.073-1.689 3.903 3.903 0 0 0-2.662-1.043c-.72 0-1.421.202-2.026.567a4.697 4.697 0 0 0-4.033-2.3v16.725a4.7 4.7 0 0 0 4.017-2.272 3.927 3.927 0 0 0 2.042.576 3.933 3.933 0 0 0 3.746-2.77 3.92 3.92 0 0 0 2.192-6.834z"/></symbol><symbol id="icon-viento" viewBox="0 0 32 32"><path d="M25.316 2.643a6.712 6.712 0 0 0-4.185 1.472.937.937 0 1 0 1.174 1.462 4.827 4.827 0 0 1 3.011-1.059c2.652 0 4.809 2.157 4.809 4.809s-2.158 4.809-4.809 4.809H7.688a.938.938 0 0 0 0 1.876h17.628c3.686 0 6.684-2.999 6.684-6.684s-2.999-6.684-6.684-6.684z"/><path d="M5.891 12.268h10.015a.938.938 0 0 0 0-1.875H5.891a.938.938 0 1 0 0 1.875zM15.643 17.893H.937a.938.938 0 0 0 0 1.876h14.706c2.127 0 3.857 1.73 3.857 3.857s-1.73 3.857-3.857 3.857a3.872 3.872 0 0 1-2.414-.849.937.937 0 1 0-1.174 1.462 5.75 5.75 0 0 0 3.588 1.262c3.16 0 5.732-2.571 5.732-5.732s-2.571-5.732-5.732-5.732zM.938 12.268h1.265a.938.938 0 0 0 0-1.875H.938a.938.938 0 1 0 0 1.875z"/><path d="M12.25 22.563a.938.938 0 0 0-.938-.938H5.687a.938.938 0 0 0 0 1.876h5.625c.518 0 .938-.42.938-.938z"/></symbol><symbol id="icon-lluvia" viewBox="0 0 30 32"><path d="M27.706 9.399c-.597-1.021-1.234-1.986-1.796-2.718-.828-1.079-1.317-1.461-1.868-1.461-.523 0-.948.366-1.426.916-.352.405-.771.966-1.212 1.624a31.567 31.567 0 0 0-1.759 2.965 62.943 62.943 0 0 0-1.461-2.643c-1.203-2.059-2.486-4.001-3.613-5.47C12.723.203 12.029.002 11.522.002s-1.201.202-3.049 2.611c-1.127 1.469-2.41 3.411-3.612 5.47C3.415 10.557.053 16.722.053 20.534c0 6.324 5.145 11.469 11.469 11.469 5.934 0 10.829-4.529 11.411-10.312a6.082 6.082 0 0 0 7.183-5.973c0-1.906-1.511-4.776-2.411-6.317zM11.523 30.125c-5.29 0-9.594-4.304-9.594-9.594 0-2.233 1.6-6.358 4.279-11.034C8.6 5.324 10.732 2.64 11.523 1.978c.791.662 2.923 3.345 5.315 7.519 2.679 4.676 4.279 8.8 4.279 11.034 0 5.29-4.304 9.594-9.594 9.594zm12.519-10.21a4.24 4.24 0 0 1-1.09-.143c-.207-2.066-1.185-4.634-2.256-6.925 1.043-2.328 2.589-4.622 3.345-5.498.477.55 1.322 1.709 2.262 3.37 1.214 2.147 1.939 4.014 1.939 4.995 0 2.316-1.884 4.2-4.2 4.2z"/><path d="M14.097 16.073a.938.938 0 0 0-1.281.343l-4.21 7.293a.938.938 0 0 0 1.624.938l4.21-7.293a.938.938 0 0 0-.343-1.281zM9.179 17.937c0-.516-.421-.938-.937-.938s-.938.421-.938.938a.938.938 0 0 0 1.875 0zM14.492 22.312c-.516 0-.938.421-.938.938s.421.938.938.938c.516 0 .938-.421.938-.938s-.421-.938-.938-.938z"/></symbol><symbol id="icon-reloj" viewBox="0 0 28 32"><path d="M16.66 4.12c.206-.391.324-.836.324-1.308 0-1.551-1.262-2.813-2.813-2.813s-2.813 1.262-2.813 2.813c0 .472.117.917.324 1.308C5.118 5.298.121 11.051.121 17.949c0 7.747 6.303 14.05 14.05 14.05s14.05-6.303 14.05-14.05c0-6.898-4.997-12.651-11.561-13.829zm-2.489-2.245c.517 0 .938.421.938.938s-.421.938-.938.938c-.517 0-.938-.421-.938-.938s.421-.938.938-.938zm0 28.25c-6.713 0-12.175-5.462-12.175-12.175S7.458 5.775 14.171 5.775c6.713 0 12.175 5.462 12.175 12.175s-5.462 12.175-12.175 12.175z"/><path d="m21.503 10.69-.04-.044a.638.638 0 0 0-.047-.042 10.293 10.293 0 0 0-7.245-2.978 10.29 10.29 0 0 0-7.267 2.998l-.025.022-.019.02a10.292 10.292 0 0 0-3.014 7.284c0 .518.42.938.938.938h1.063a.938.938 0 0 0 0-1.876h-.073a8.415 8.415 0 0 1 1.805-4.342l.052.052a.935.935 0 0 0 1.326 0 .938.938 0 0 0 0-1.326l-.05-.051a8.407 8.407 0 0 1 4.328-1.794v.073a.938.938 0 0 0 1.876 0v-.073a8.405 8.405 0 0 1 4.327 1.795l-.05.05a.938.938 0 0 0 1.326 1.326l.051-.051A8.408 8.408 0 0 1 22.569 17h-.084a.938.938 0 1 0 0 1.875h1.076a.937.937 0 0 0 .936-.939 10.29 10.29 0 0 0-2.993-7.246z"/><path d="M18.423 13.698a.938.938 0 0 0-1.326 0l-3.915 3.915a2.8 2.8 0 0 0-1.407-.268.938.938 0 1 0 .131 1.87.936.936 0 0 1 1.001.989.937.937 0 0 0 1.872.109 2.813 2.813 0 0 0-.271-1.374l3.915-3.915a.938.938 0 0 0 0-1.326zM19.546 24.688H8.796a.938.938 0 1 0 0 1.875h10.75a.938.938 0 0 0 0-1.875z"/></symbol><symbol id="icon-calor-frio" viewBox="0 0 32 32"><path fill="#fdbf00" style="fill:var(--color1,#fdbf00)" d="M16 25.375c-5.169 0-9.375-4.206-9.375-9.375S10.831 6.625 16 6.625c.518 0 .938.42.938.938v16.875c0 .518-.42.938-.938.938z"/><path fill="#7dd5f4" style="fill:var(--color2,#7dd5f4)" d="M31.063 15.063h-1.457l.714-1.237a.938.938 0 0 0-1.624-.938l-1.256 2.175h-9.177l6.489-6.489 2.425.65a.937.937 0 0 0 .485-1.811l-1.38-.37.942-.942a.938.938 0 0 0-1.326-1.326l-.942.942-.37-1.38a.938.938 0 0 0-1.811.485l.65 2.425-6.489 6.489V4.559l2.175-1.256a.938.938 0 0 0-.938-1.624l-1.237.714V.936a.938.938 0 0 0-1.876 0v30.125a.938.938 0 0 0 1.876 0v-1.457l1.237.714a.938.938 0 1 0 .938-1.624l-2.175-1.256v-9.177l6.489 6.489-.65 2.426a.938.938 0 0 0 1.811.485l.37-1.38.942.942a.935.935 0 0 0 1.326 0 .938.938 0 0 0 0-1.326l-.942-.942 1.38-.37a.938.938 0 0 0-.485-1.811l-2.425.65-6.489-6.489h9.177l1.256 2.175a.938.938 0 1 0 1.624-.938l-.714-1.237h1.457a.938.938 0 0 0 0-1.876z"/><path fill="#fdbf00" style="fill:var(--color1,#fdbf00)" d="M3.941 16.937H.938a.938.938 0 0 1 0-1.876h3.003a.938.938 0 0 1 0 1.876zM7.473 8.41a.931.931 0 0 1-.663-.275L4.686 6.011a.938.938 0 0 1 1.326-1.326l2.124 2.124a.938.938 0 0 1-.663 1.601zM5.349 27.588a.938.938 0 0 1-.663-1.601l2.124-2.124a.938.938 0 0 1 1.326 1.326l-2.124 2.124a.935.935 0 0 1-.663.275zM11.481 5.758a.936.936 0 0 1-.869-.586L9.486 2.388a.937.937 0 1 1 1.739-.702l1.126 2.784a.937.937 0 0 1-.869 1.289zM2.036 22.583a.937.937 0 0 1-.351-1.806l2.784-1.126a.937.937 0 1 1 .702 1.738l-2.784 1.126a.926.926 0 0 1-.351.069zM10.288 30.875a.938.938 0 0 1-.867-1.293l1.139-2.779a.938.938 0 0 1 1.735.711l-1.139 2.779a.938.938 0 0 1-.868.582zM4.841 12.365a.947.947 0 0 1-.355-.07l-2.779-1.139a.938.938 0 0 1 .711-1.735l2.779 1.139a.938.938 0 0 1-.356 1.805z"/><path fill="#4793ff" style="fill:var(--color3,#4793ff)" d="M31.063 15.063h-1.457l.714-1.237a.938.938 0 0 0-1.624-.938l-1.256 2.175h-9.177l6.489-6.489 2.425.65a.937.937 0 0 0 .485-1.811l-1.38-.37.942-.942a.938.938 0 0 0-1.326-1.326l-.942.942-.37-1.38a.938.938 0 0 0-1.811.485l.65 2.425-6.489 6.489V4.559l2.175-1.256a.938.938 0 0 0-.938-1.624l-1.237.714V.936a.938.938 0 0 0-.938-.938v32c.518 0 .938-.42.938-.938v-1.457l1.237.714a.938.938 0 1 0 .938-1.624l-2.175-1.256V18.26l6.489 6.489-.65 2.426a.938.938 0 0 0 1.811.485l.37-1.38.942.942a.935.935 0 0 0 1.326 0 .938.938 0 0 0 0-1.326l-.942-.942 1.38-.37a.938.938 0 0 0-.485-1.811l-2.425.65-6.489-6.489h9.177l1.256 2.175a.938.938 0 1 0 1.624-.938l-.714-1.237h1.457a.938.938 0 0 0 0-1.876z"/></symbol><symbol id="icon-calor" viewBox="0 0 32 32"><path fill="#fdbf00" style="fill:var(--color1,#fdbf00)" d="M16 24.688c-4.79 0-8.688-3.897-8.688-8.688S11.209 7.312 16 7.312c4.79 0 8.688 3.897 8.688 8.688S20.791 24.688 16 24.688zM16 5.103a.938.938 0 0 1-.938-.938V.937a.938.938 0 0 1 1.876 0v3.228c0 .518-.42.938-.938.938z"/><path fill="#ff8856" style="fill:var(--color4,#ff8856)" d="M31.063 16.938h-3.228a.938.938 0 0 1 0-1.876h3.228a.938.938 0 0 1 0 1.876z"/><path fill="#fdbf00" style="fill:var(--color1,#fdbf00)" d="M16 32a.938.938 0 0 1-.938-.938v-3.228a.938.938 0 0 1 1.876 0v3.228c0 .518-.42.938-.938.938zM4.165 16.938H.937a.938.938 0 0 1 0-1.876h3.228a.938.938 0 0 1 0 1.876z"/><path fill="#ff8856" style="fill:var(--color4,#ff8856)" d="M24.369 8.569a.938.938 0 0 1-.663-1.601l2.282-2.282a.938.938 0 0 1 1.326 1.326l-2.282 2.282a.935.935 0 0 1-.663.275zM26.651 27.588a.935.935 0 0 1-.663-.275l-2.282-2.282a.938.938 0 0 1 1.326-1.326l2.282 2.282a.938.938 0 0 1-.663 1.601z"/><path fill="#fdbf00" style="fill:var(--color1,#fdbf00)" d="M5.349 27.588a.938.938 0 0 1-.663-1.601l2.282-2.282a.938.938 0 0 1 1.326 1.326l-2.282 2.282a.935.935 0 0 1-.663.275zM7.631 8.569a.931.931 0 0 1-.663-.275L4.686 6.012a.938.938 0 0 1 1.326-1.326l2.282 2.282a.938.938 0 0 1-.663 1.601z"/><path fill="#ff8856" style="fill:var(--color4,#ff8856)" d="M20.541 6.009a.938.938 0 0 1-.865-1.298l1.239-2.981a.938.938 0 0 1 1.732.72l-1.239 2.981a.94.94 0 0 1-.866.578zM29.909 22.718a.936.936 0 0 1-.36-.072l-2.98-1.239a.938.938 0 1 1 .72-1.732l2.981 1.239a.937.937 0 0 1-.36 1.803z"/><path fill="#fdbf00" style="fill:var(--color1,#fdbf00)" d="M10.219 30.847a.936.936 0 0 1-.866-1.297l1.239-2.981a.938.938 0 1 1 1.732.72l-1.239 2.98a.94.94 0 0 1-.866.578zM5.071 12.396a.928.928 0 0 1-.359-.072l-2.981-1.239a.938.938 0 1 1 .72-1.732l2.981 1.239a.938.938 0 0 1-.36 1.804z"/><path fill="#ff8856" style="fill:var(--color4,#ff8856)" d="M26.94 12.421a.939.939 0 0 1-.358-1.804l2.983-1.232a.937.937 0 0 1 .715 1.733l-2.983 1.232a.94.94 0 0 1-.357.071zM21.748 30.861a.937.937 0 0 1-.867-.58l-1.232-2.983a.936.936 0 1 1 1.733-.715l1.232 2.983a.936.936 0 0 1-.866 1.295z"/><path fill="#fdbf00" style="fill:var(--color1,#fdbf00)" d="M2.078 22.685a.937.937 0 0 1-.358-1.804l2.983-1.232a.936.936 0 1 1 .715 1.733l-2.983 1.232a.94.94 0 0 1-.357.071zM11.484 5.999a.937.937 0 0 1-.867-.58L9.385 2.436a.936.936 0 1 1 1.733-.715l1.232 2.983a.936.936 0 0 1-.866 1.295z"/><path fill="#ff8856" style="fill:var(--color4,#ff8856)" d="M16 0v5.103c.518 0 .938-.42.938-.938V.937A.938.938 0 0 0 16-.001zM16 7.313v17.375c4.79 0 8.688-3.897 8.688-8.688S20.791 7.312 16 7.312zM16 26.897V32c.518 0 .938-.42.938-.938v-3.228a.938.938 0 0 0-.938-.938z"/></symbol><symbol id="icon-nieve" viewBox="0 0 32 32"><path fill="#7dd5f4" style="fill:var(--color2,#7dd5f4)" d="M19.531 28.438a.938.938 0 0 0-.938-.938h-.33l.234-.234a.938.938 0 0 0-1.326-1.326l-.234.234v-.362a.937.937 0 0 0-1.876 0v.362l-.256-.256a.938.938 0 0 0-1.326 1.326l.256.256h-.33a.938.938 0 0 0 0 1.876h.33l-.234.234a.938.938 0 0 0 1.326 1.326l.234-.234v.362a.938.938 0 0 0 1.876 0v-.362l.256.256a.935.935 0 0 0 1.326 0 .938.938 0 0 0 0-1.326l-.256-.256h.33c.518 0 .938-.42.938-.938zM7.063 22.5a.938.938 0 0 0-.938-.938h-.33l.234-.234a.938.938 0 0 0-1.326-1.326l-.234.234v-.362a.938.938 0 0 0-1.876 0v.362l-.256-.256a.938.938 0 0 0-1.326 1.326l.256.256H.936a.938.938 0 0 0 0 1.876h.33l-.234.234a.938.938 0 0 0 1.326 1.326l.234-.234v.362a.938.938 0 0 0 1.876 0v-.362l.256.256a.935.935 0 0 0 1.326 0 .938.938 0 0 0 0-1.326l-.256-.256h.33c.518 0 .938-.42.938-.938z"/><path fill="#4793ff" style="fill:var(--color3,#4793ff)" d="M32 22.5a.938.938 0 0 0-.938-.938h-.33l.234-.234a.938.938 0 0 0-1.326-1.326l-.234.234v-.362a.938.938 0 0 0-1.876 0v.362l-.256-.256a.938.938 0 0 0-1.326 1.326l.256.256h-.33a.938.938 0 0 0 0 1.876h.33l-.234.234a.938.938 0 0 0 1.326 1.326l.234-.234v.362a.938.938 0 0 0 1.876 0v-.362l.256.256a.935.935 0 0 0 1.326 0 .938.938 0 0 0 0-1.326l-.256-.256h.33c.518 0 .938-.42.938-.938z"/><path fill="#fff4f4" style="fill:var(--color5,#fff4f4)" d="M10.781 23.375c.516 0 .938-.421.938-.938s-.421-.938-.938-.938-.938.421-.938.938a.94.94 0 0 0 .938.938zM21.219 23.375c.516 0 .938-.421.938-.938s-.421-.938-.938-.938-.938.421-.938.938a.94.94 0 0 0 .938.938zM5.688 32c.516 0 .938-.421.938-.938s-.421-.938-.938-.938c-.516 0-.938.421-.938.938s.421.938.938.938zM26.313 32c.516 0 .938-.421.938-.938s-.421-.938-.938-.938c-.516 0-.938.421-.938.938s.421.938.938.938zM16 19.938a5.516 5.516 0 0 1-3.452-1.218 5.514 5.514 0 0 1-1.364-1.628 4.574 4.574 0 0 1-2.553.784 4.579 4.579 0 0 1-4.4-3.356 4.56 4.56 0 0 1-4.23-4.55 4.568 4.568 0 0 1 4.242-4.551 4.557 4.557 0 0 1 1.288-2.095 4.552 4.552 0 0 1 5.635-.443 5.542 5.542 0 0 1 1.367-1.648C13.509.439 14.741.002 16.001.002s2.492.437 3.468 1.231a5.53 5.53 0 0 1 1.367 1.648 4.572 4.572 0 0 1 2.535-.772c1.153 0 2.254.431 3.1 1.215a4.539 4.539 0 0 1 1.288 2.096 4.562 4.562 0 0 1 .012 9.101 4.579 4.579 0 0 1-4.4 3.356c-.917 0-1.806-.28-2.553-.784a5.527 5.527 0 0 1-1.364 1.628 5.51 5.51 0 0 1-3.452 1.218z"/><path fill="#f6efea" style="fill:var(--color6,#f6efea)" d="M30.457 6.549a4.567 4.567 0 0 0-2.699-1.131 4.56 4.56 0 0 0-6.923-2.539 5.539 5.539 0 0 0-1.366-1.648A5.511 5.511 0 0 0 16.001 0v19.937a5.516 5.516 0 0 0 3.452-1.218 5.533 5.533 0 0 0 1.365-1.628 4.574 4.574 0 0 0 2.553.784 4.579 4.579 0 0 0 4.4-3.356 4.564 4.564 0 0 0 2.687-7.97z"/><path fill="#4793ff" style="fill:var(--color3,#4793ff)" d="M19.531 28.438a.938.938 0 0 0-.938-.938h-.33l.234-.234a.938.938 0 0 0-1.326-1.326l-.234.234v-.362a.937.937 0 0 0-.938-.937V32c.518 0 .938-.42.938-.938V30.7l.256.256a.935.935 0 0 0 1.326 0 .938.938 0 0 0 0-1.326l-.256-.256h.33c.518 0 .938-.42.938-.937z"/></symbol><symbol id="icon-nublado" viewBox="0 0 32 32"><path fill="#fdbf00" style="fill:var(--color1,#fdbf00)" d="M19.218 21.205c-3.847 0-6.995-3.112-7.03-6.967-.036-3.877 3.09-7.06 6.967-7.096h.066c3.847 0 6.995 3.112 7.03 6.967.036 3.877-3.09 7.06-6.966 7.096h-.065z"/><path fill="#ff8856" style="fill:var(--color4,#ff8856)" d="M19.22 7.142h-.001v14.063h.065c3.877-.036 7.002-3.219 6.966-7.096-.035-3.855-3.183-6.967-7.03-6.967z"/><path fill="#fdbf00" style="fill:var(--color1,#fdbf00)" d="M19.246 5.806a.937.937 0 0 1-.937-.929l-.023-2.538a.937.937 0 0 1 .929-.946h.009c.514 0 .932.414.937.929l.023 2.538a.937.937 0 0 1-.929.946h-.009z"/><path fill="#ff8856" style="fill:var(--color4,#ff8856)" d="M28.525 15.026a.937.937 0 0 1-.008-1.875l2.547-.023a.937.937 0 0 1 .008 1.875l-2.538.023h-.009zM25.851 8.471a.936.936 0 0 1-.669-1.594l1.778-1.811a.938.938 0 0 1 1.338 1.314L26.52 8.191a.933.933 0 0 1-.669.281z"/><path fill="#fdbf00" style="fill:var(--color1,#fdbf00)" d="M12.691 8.592a.936.936 0 0 1-.657-.268l-1.811-1.778a.938.938 0 0 1 1.314-1.338l1.811 1.778a.938.938 0 0 1-.657 1.607z"/><path fill="#ff8856" style="fill:var(--color4,#ff8856)" d="M22.824 6.486a.937.937 0 0 1-.869-1.29l.952-2.352a.938.938 0 0 1 1.738.704L23.693 5.9a.938.938 0 0 1-.869.586zM30.31 19.556a.926.926 0 0 1-.351-.069l-2.352-.952a.937.937 0 1 1 .704-1.738l2.352.952a.937.937 0 0 1-.352 1.807z"/><path fill="#fdbf00" style="fill:var(--color1,#fdbf00)" d="M10.706 11.619a.926.926 0 0 1-.351-.069l-2.352-.952a.937.937 0 1 1 .704-1.738l2.352.952a.937.937 0 0 1-.352 1.807z"/><path fill="#ff8856" style="fill:var(--color4,#ff8856)" d="M27.901 11.482a.937.937 0 0 1-.366-1.801l2.337-.99a.937.937 0 1 1 .731 1.727l-2.337.99a.941.941 0 0 1-.365.074z"/><path fill="#fdbf00" style="fill:var(--color1,#fdbf00)" d="M15.702 6.543a.94.94 0 0 1-.864-.572l-.99-2.337a.938.938 0 0 1 1.726-.731l.99 2.337a.937.937 0 0 1-.863 1.304z"/><path fill="#fff4f4" style="fill:var(--color5,#fff4f4)" d="M13.937 30.607a4.883 4.883 0 0 1-4.201-2.403 4.074 4.074 0 0 1-2.159.623 4.081 4.081 0 0 1-3.897-2.905 4.066 4.066 0 0 1 .011-8.097 4.064 4.064 0 0 1 1.123-1.782 4.056 4.056 0 0 1 4.906-.47 4.875 4.875 0 0 1 8.436 0 4.08 4.08 0 0 1 2.143-.613 4.05 4.05 0 0 1 2.763 1.083c.53.491.914 1.105 1.123 1.782a4.065 4.065 0 0 1 .011 8.097 4.083 4.083 0 0 1-3.897 2.905 4.071 4.071 0 0 1-2.159-.623 4.895 4.895 0 0 1-1.141 1.323 4.885 4.885 0 0 1-3.06 1.08z"/><path fill="#f6efea" style="fill:var(--color6,#f6efea)" d="M26.5 18.827a4.079 4.079 0 0 0-2.317-1.001 4.058 4.058 0 0 0-1.123-1.782 4.056 4.056 0 0 0-4.906-.47 4.875 4.875 0 0 0-4.218-2.431v17.464a4.877 4.877 0 0 0 4.201-2.403c.64.401 1.389.623 2.159.623a4.081 4.081 0 0 0 3.897-2.905 4.066 4.066 0 0 0 2.306-7.096z"/><path fill="#ff8856" style="fill:var(--color4,#ff8856)" d="M20.16 2.322a.937.937 0 0 0-.937-.929h-.004v4.411l.028.001h.009a.937.937 0 0 0 .929-.946l-.023-2.538z"/></symbol></defs></svg>